<svg width="67" height="19" viewBox="0 0 67 19" fill="none" xmlns="http://www.w3.org/2000/svg">
<path d="M4.992 13.12C4.056 13.12 3.264 12.944 2.616 12.592C1.976 12.24 1.488 11.74 1.152 11.092C0.816 10.444 0.648 9.676 0.648 8.788C0.648 8.116 0.744 7.512 0.936 6.976C1.136 6.44 1.42 5.984 1.788 5.608C2.164 5.224 2.62 4.932 3.156 4.732C3.692 4.524 4.3 4.42 4.98 4.42C5.428 4.42 5.876 4.476 6.324 4.588C6.78 4.692 7.208 4.872 7.608 5.128C7.744 5.216 7.832 5.324 7.872 5.452C7.92 5.58 7.928 5.712 7.896 5.848C7.864 5.976 7.804 6.088 7.716 6.184C7.628 6.28 7.516 6.34 7.38 6.364C7.252 6.388 7.108 6.356 6.948 6.268C6.644 6.092 6.336 5.964 6.024 5.884C5.712 5.804 5.364 5.764 4.98 5.764C4.388 5.764 3.888 5.884 3.48 6.124C3.072 6.356 2.764 6.696 2.556 7.144C2.356 7.592 2.256 8.14 2.256 8.788C2.256 9.772 2.492 10.52 2.964 11.032C3.436 11.544 4.136 11.8 5.064 11.8C5.384 11.8 5.708 11.768 6.036 11.704C6.364 11.64 6.684 11.552 6.996 11.44L6.696 12.124V9.568H5.376C5.176 9.568 5.02 9.516 4.908 9.412C4.804 9.308 4.752 9.168 4.752 8.992C4.752 8.808 4.804 8.668 4.908 8.572C5.02 8.476 5.176 8.428 5.376 8.428H7.356C7.556 8.428 7.708 8.484 7.812 8.596C7.924 8.7 7.98 8.852 7.98 9.052V11.968C7.98 12.144 7.944 12.292 7.872 12.412C7.808 12.532 7.7 12.62 7.548 12.676C7.196 12.804 6.792 12.912 6.336 13C5.88 13.08 5.432 13.12 4.992 13.12ZM10.5279 13.096C10.2799 13.096 10.0879 13.028 9.95194 12.892C9.82394 12.748 9.75994 12.552 9.75994 12.304V5.236C9.75994 4.98 9.82394 4.784 9.95194 4.648C10.0879 4.512 10.2799 4.444 10.5279 4.444C10.7759 4.444 10.9639 4.512 11.0919 4.648C11.2279 4.784 11.2959 4.98 11.2959 5.236V12.304C11.2959 12.552 11.2319 12.748 11.1039 12.892C10.9759 13.028 10.7839 13.096 10.5279 13.096ZM15.9547 13.096C15.7067 13.096 15.5147 13.028 15.3787 12.892C15.2507 12.748 15.1867 12.552 15.1867 12.304V5.824H12.8467C12.6387 5.824 12.4747 5.768 12.3547 5.656C12.2427 5.536 12.1867 5.376 12.1867 5.176C12.1867 4.968 12.2427 4.812 12.3547 4.708C12.4747 4.596 12.6387 4.54 12.8467 4.54H19.0627C19.2707 4.54 19.4307 4.596 19.5427 4.708C19.6627 4.812 19.7227 4.968 19.7227 5.176C19.7227 5.376 19.6627 5.536 19.5427 5.656C19.4307 5.768 19.2707 5.824 19.0627 5.824H16.7227V12.304C16.7227 12.552 16.6587 12.748 16.5307 12.892C16.4027 13.028 16.2107 13.096 15.9547 13.096ZM21.3678 13.096C21.1198 13.096 20.9278 13.028 20.7918 12.892C20.6638 12.748 20.5998 12.552 20.5998 12.304V5.236C20.5998 4.98 20.6638 4.784 20.7918 4.648C20.9278 4.512 21.1198 4.444 21.3678 4.444C21.6158 4.444 21.8038 4.512 21.9318 4.648C22.0678 4.784 22.1358 4.98 22.1358 5.236V8.068H26.4918V5.236C26.4918 4.98 26.5558 4.784 26.6838 4.648C26.8198 4.512 27.0118 4.444 27.2598 4.444C27.5078 4.444 27.6958 4.512 27.8238 4.648C27.9598 4.784 28.0278 4.98 28.0278 5.236V12.304C28.0278 12.552 27.9598 12.748 27.8238 12.892C27.6958 13.028 27.5078 13.096 27.2598 13.096C27.0118 13.096 26.8198 13.028 26.6838 12.892C26.5558 12.748 26.4918 12.552 26.4918 12.304V9.352H22.1358V12.304C22.1358 12.552 22.0718 12.748 21.9438 12.892C21.8158 13.028 21.6238 13.096 21.3678 13.096ZM33.397 13.12C32.813 13.12 32.297 13.044 31.849 12.892C31.409 12.74 31.037 12.516 30.733 12.22C30.429 11.916 30.201 11.54 30.049 11.092C29.897 10.644 29.821 10.124 29.821 9.532V5.224C29.821 4.96 29.885 4.764 30.013 4.636C30.149 4.508 30.341 4.444 30.589 4.444C30.837 4.444 31.025 4.508 31.153 4.636C31.289 4.764 31.357 4.96 31.357 5.224V9.52C31.357 10.28 31.529 10.852 31.873 11.236C32.225 11.612 32.733 11.8 33.397 11.8C34.061 11.8 34.565 11.612 34.909 11.236C35.253 10.852 35.425 10.28 35.425 9.52V5.224C35.425 4.96 35.489 4.764 35.617 4.636C35.753 4.508 35.945 4.444 36.193 4.444C36.433 4.444 36.617 4.508 36.745 4.636C36.881 4.764 36.949 4.96 36.949 5.224V9.532C36.949 10.316 36.813 10.976 36.541 11.512C36.277 12.048 35.881 12.452 35.353 12.724C34.825 12.988 34.173 13.12 33.397 13.12ZM39.5564 13C39.2924 13 39.0884 12.932 38.9444 12.796C38.8084 12.652 38.7404 12.448 38.7404 12.184V5.356C38.7404 5.092 38.8084 4.892 38.9444 4.756C39.0884 4.612 39.2924 4.54 39.5564 4.54H42.4364C43.0284 4.54 43.5324 4.628 43.9484 4.804C44.3644 4.98 44.6804 5.232 44.8964 5.56C45.1204 5.888 45.2324 6.28 45.2324 6.736C45.2324 7.248 45.0844 7.68 44.7884 8.032C44.4924 8.384 44.0884 8.62 43.5764 8.74V8.56C44.1684 8.648 44.6284 8.872 44.9564 9.232C45.2844 9.592 45.4484 10.06 45.4484 10.636C45.4484 11.388 45.1924 11.972 44.6804 12.388C44.1764 12.796 43.4724 13 42.5684 13H39.5564ZM40.2164 11.836H42.3764C42.9204 11.836 43.3204 11.732 43.5764 11.524C43.8324 11.308 43.9604 10.988 43.9604 10.564C43.9604 10.132 43.8324 9.812 43.5764 9.604C43.3204 9.396 42.9204 9.292 42.3764 9.292H40.2164V11.836ZM40.2164 8.128H42.1724C42.7004 8.128 43.0924 8.028 43.3484 7.828C43.6124 7.62 43.7444 7.316 43.7444 6.916C43.7444 6.516 43.6124 6.216 43.3484 6.016C43.0924 5.808 42.7004 5.704 42.1724 5.704H40.2164V8.128Z" fill="#3294F8"/>
<g clip-path="url(#clip0_406_228)">
<path d="M61.8036 4.67857C61.8036 4.23485 62.1627 3.875 62.6071 3.875H65.7988C65.9294 3.875 66.0349 3.8966 66.1278 3.93602C66.2006 3.97494 66.3111 4.03245 66.389 4.10854C66.389 4.10979 66.389 4.11105 66.3915 4.11205C66.5472 4.26825 66.6024 4.47215 66.625 4.67606C66.625 4.67706 66.625 4.67782 66.625 4.67857V7.89286C66.625 8.33733 66.2659 8.69643 65.8214 8.69643C65.377 8.69643 65.0179 8.33733 65.0179 7.89286V6.6197L60.764 10.8711C60.4501 11.185 59.9428 11.185 59.6289 10.8711C59.315 10.5572 59.315 10.0499 59.6289 9.73605L63.8803 5.48214H62.6071C62.1627 5.48214 61.8036 5.12229 61.8036 4.67857ZM55.375 6.28571C55.375 5.39802 56.0944 4.67857 56.9821 4.67857H59.3929C59.8373 4.67857 60.1964 5.03842 60.1964 5.48214C60.1964 5.92662 59.8373 6.28571 59.3929 6.28571H56.9821V13.5179H64.2143V11.1071C64.2143 10.6627 64.5734 10.3036 65.0179 10.3036C65.4623 10.3036 65.8214 10.6627 65.8214 11.1071V13.5179C65.8214 14.4043 65.1007 15.125 64.2143 15.125H56.9821C56.0944 15.125 55.375 14.4043 55.375 13.5179V6.28571Z" fill="#3294F8"/>
</g>
<defs>
<clipPath id="clip0_406_228">
<rect width="12" height="12" fill="white" transform="translate(55 3.5)"/>
</clipPath>
</defs>
</svg>
